<?xml version="1.0" encoding="UTF-8"?>
<svg id="Camada_1" xmlns="http://www.w3.org/2000/svg" xmlns:xlink="http://www.w3.org/1999/xlink" viewBox="0 0 450 120">
  <defs>
    <style>
      .cls-1 {
        fill: url(#Gradiente_sem_nome_14-4);
      }

      .cls-2 {
        fill: none;
      }

      .cls-3 {
        fill: #111110;
      }

      .cls-4 {
        fill: url(#Gradiente_sem_nome_14-7);
      }

      .cls-5 {
        fill: url(#Gradiente_sem_nome_14-5);
      }

      .cls-6 {
        clip-path: url(#clippath-1);
      }

      .cls-7 {
        fill: url(#Gradiente_sem_nome_14-6);
      }

      .cls-8 {
        fill: url(#Gradiente_sem_nome_14-2);
      }

      .cls-9 {
        fill: url(#Gradiente_sem_nome_14-3);
      }

      .cls-10 {
        clip-path: url(#clippath);
      }

      .cls-11 {
        fill: url(#Gradiente_sem_nome_14);
      }
    </style>
    <clipPath id="clippath">
      <path class="cls-2" d="M365.39,98.84c-5.46,0-10.4-1.2-14.84-3.6-4.44-2.4-7.93-5.71-10.47-9.93-2.55-4.22-3.82-8.95-3.82-14.18s1.29-10.05,3.87-14.24c2.58-4.18,6.09-7.47,10.53-9.87,4.43-2.4,9.42-3.6,14.95-3.6,4.15,0,7.95.71,11.4,2.13,3.45,1.42,6.53,3.55,9.22,6.38l-10.69,10.69c-1.24-1.38-2.67-2.4-4.31-3.05-1.64-.65-3.51-.98-5.62-.98-2.4,0-4.53.53-6.38,1.58-1.85,1.06-3.31,2.51-4.36,4.36-1.06,1.85-1.58,4.02-1.58,6.49s.53,4.65,1.58,6.55c1.05,1.89,2.53,3.38,4.42,4.47,1.89,1.09,4,1.64,6.33,1.64,2.18,0,4.13-.38,5.84-1.15,1.71-.76,3.18-1.84,4.42-3.22l10.58,10.69c-2.76,2.91-5.89,5.11-9.38,6.6-3.49,1.49-7.38,2.24-11.67,2.24Z"/>
    </clipPath>
    <linearGradient id="Gradiente_sem_nome_14" data-name="Gradiente sem nome 14" x1="329.85" y1="69.22" x2="446.89" y2="69.22" gradientUnits="userSpaceOnUse">
      <stop offset="0" stop-color="#d73a8d"/>
      <stop offset="1" stop-color="#914996"/>
    </linearGradient>
    <clipPath id="clippath-1">
      <path class="cls-2" d="M422.84,98.84c-5.46,0-10.4-1.2-14.84-3.6-4.44-2.4-7.93-5.71-10.47-9.93-2.55-4.22-3.82-8.95-3.82-14.18s1.29-10.05,3.87-14.24c2.58-4.18,6.09-7.47,10.53-9.87,4.43-2.4,9.42-3.6,14.95-3.6,4.15,0,7.95.71,11.4,2.13,3.45,1.42,6.53,3.55,9.22,6.38l-10.69,10.69c-1.24-1.38-2.67-2.4-4.31-3.05-1.64-.65-3.51-.98-5.62-.98-2.4,0-4.53.53-6.38,1.58-1.85,1.06-3.31,2.51-4.36,4.36-1.06,1.85-1.58,4.02-1.58,6.49s.53,4.65,1.58,6.55c1.05,1.89,2.53,3.38,4.42,4.47,1.89,1.09,4,1.64,6.33,1.64,2.18,0,4.13-.38,5.84-1.15,1.71-.76,3.18-1.84,4.42-3.22l10.58,10.69c-2.76,2.91-5.89,5.11-9.38,6.6-3.49,1.49-7.38,2.24-11.67,2.24Z"/>
    </clipPath>
    <linearGradient id="Gradiente_sem_nome_14-2" data-name="Gradiente sem nome 14" x1="326.85" x2="443.89" xlink:href="#Gradiente_sem_nome_14"/>
    <linearGradient id="Gradiente_sem_nome_14-3" data-name="Gradiente sem nome 14" x1="22.23" y1="9.56" x2="41.35" y2="9.56" xlink:href="#Gradiente_sem_nome_14"/>
    <linearGradient id="Gradiente_sem_nome_14-4" data-name="Gradiente sem nome 14" x1="17.37" y1="51.14" x2="65.82" y2="51.14" gradientTransform="translate(-.15 .12) rotate(-.17)" xlink:href="#Gradiente_sem_nome_14"/>
    <linearGradient id="Gradiente_sem_nome_14-5" data-name="Gradiente sem nome 14" x1="12.87" y1="27.36" x2="62.28" y2="27.36" gradientTransform="translate(10.31 -10.28) rotate(18.02)" xlink:href="#Gradiente_sem_nome_14"/>
    <linearGradient id="Gradiente_sem_nome_14-6" data-name="Gradiente sem nome 14" x1="12.74" y1="72.22" x2="47.01" y2="72.22" gradientTransform="translate(-21.23 13.09) rotate(-18.37)" xlink:href="#Gradiente_sem_nome_14"/>
    <linearGradient id="Gradiente_sem_nome_14-7" data-name="Gradiente sem nome 14" x1="3.11" y1="87.16" x2="28.24" y2="87.16" gradientTransform="translate(-54.07 32.6) rotate(-41.77)" xlink:href="#Gradiente_sem_nome_14"/>
  </defs>
  <path class="cls-3" d="M94.95,61.82c-1.83-1.96-4.07-3.58-6.69-4.85,1.86-1.03,3.47-2.24,4.78-3.66,3.06-3.27,4.58-7.27,4.58-12,0-3.71-.91-7.09-2.73-10.15-1.82-3.05-4.46-5.49-7.91-7.31-3.46-1.82-7.65-2.73-12.6-2.73h-6.45v13.31h3.18c2.84,0,5.13.71,6.87,2.13,1.75,1.42,2.62,3.55,2.62,6.38s-.87,5.07-2.62,6.49c-1.75,1.42-4.04,2.13-6.87,2.13h-20.73v12.98h22.15c2.25,0,4.16.44,5.73,1.31,1.56.87,2.78,2.07,3.65,3.6.87,1.53,1.31,3.27,1.31,5.24,0,2.84-.95,5.24-2.84,7.2-1.89,1.96-4.51,2.94-7.85,2.94h-14.29v-8.66h-16.91v21.97h32.84c5.45,0,10.13-.98,14.02-2.95,3.89-1.96,6.87-4.64,8.95-8.02,2.07-3.38,3.11-7.18,3.11-11.4,0-5.53-1.76-10.18-5.29-13.96Z"/>
  <path class="cls-3" d="M317.1,37.58c-2.61,0-4.76-.89-6.46-2.66-1.7-1.77-2.55-3.93-2.55-6.46s.85-4.78,2.55-6.52c1.7-1.74,3.86-2.61,6.46-2.61s4.74.87,6.41,2.61c1.66,1.74,2.5,3.91,2.5,6.52s-.83,4.69-2.5,6.46c-1.67,1.78-3.8,2.66-6.41,2.66ZM308.74,97.64v-52.78h16.61v52.78h-16.61Z"/>
  <path class="cls-3" d="M205.64,99.34c-5.75,0-10.85-1.18-15.33-3.55-4.47-2.36-7.98-5.65-10.53-9.87-2.55-4.22-3.82-8.98-3.82-14.29s1.25-10.05,3.76-14.24c2.51-4.18,5.91-7.47,10.2-9.87,4.29-2.4,9.13-3.6,14.51-3.6s9.85,1.13,13.86,3.38c4,2.26,7.15,5.38,9.44,9.38,2.29,4,3.44,8.58,3.44,13.75,0,.95-.06,1.95-.16,3-.11,1.06-.31,2.27-.6,3.65l-45.71.11v-11.45l38.62-.11-7.2,4.8c-.07-3.05-.55-5.58-1.42-7.58-.87-2-2.16-3.53-3.87-4.58-1.71-1.05-3.8-1.58-6.27-1.58-2.62,0-4.89.6-6.82,1.8-1.93,1.2-3.42,2.89-4.47,5.07-1.06,2.18-1.58,4.84-1.58,7.96s.56,5.8,1.69,8.02c1.13,2.22,2.73,3.93,4.8,5.13,2.07,1.2,4.53,1.8,7.36,1.8,2.62,0,4.98-.45,7.09-1.36,2.11-.91,3.96-2.27,5.56-4.09l9.16,9.16c-2.62,3.05-5.78,5.35-9.49,6.87-3.71,1.53-7.78,2.29-12.22,2.29Z"/>
  <path class="cls-3" d="M140.18,98.84c-5.75,0-10.85-1.18-15.33-3.55-4.47-2.36-7.98-5.65-10.53-9.87-2.55-4.22-3.82-8.98-3.82-14.29s1.25-10.05,3.76-14.24c2.51-4.18,5.91-7.47,10.2-9.87,4.29-2.4,9.13-3.6,14.51-3.6s9.85,1.13,13.86,3.38c4,2.26,7.15,5.38,9.44,9.38,2.29,4,3.44,8.58,3.44,13.75,0,.95-.06,1.95-.16,3-.11,1.06-.31,2.27-.6,3.65l-45.71.11v-11.45l38.62-.11-7.2,4.8c-.07-3.05-.55-5.58-1.42-7.58-.87-2-2.16-3.53-3.87-4.58-1.71-1.05-3.8-1.58-6.27-1.58-2.62,0-4.89.6-6.82,1.8-1.93,1.2-3.42,2.89-4.47,5.07-1.06,2.18-1.58,4.84-1.58,7.96s.56,5.8,1.69,8.02c1.13,2.22,2.73,3.93,4.8,5.13,2.07,1.2,4.53,1.8,7.36,1.8,2.62,0,4.98-.45,7.09-1.36,2.11-.91,3.96-2.27,5.56-4.09l9.16,9.16c-2.62,3.05-5.78,5.35-9.49,6.87-3.71,1.53-7.78,2.29-12.22,2.29Z"/>
  <path class="cls-3" d="M241.43,120V44.62h16.69v13.64l-2.73,12.87,2.51,12.87v36h-16.47ZM271.97,98.73c-3.56,0-6.84-.69-9.82-2.07-2.98-1.38-5.42-3.29-7.31-5.73-1.89-2.44-2.98-5.22-3.27-8.35v-22.36c.29-3.13,1.38-5.96,3.27-8.51,1.89-2.55,4.33-4.54,7.31-6,2.98-1.45,6.25-2.18,9.82-2.18,5.02,0,9.47,1.2,13.36,3.6,3.89,2.4,6.94,5.67,9.16,9.82,2.22,4.15,3.33,8.87,3.33,14.18s-1.11,10.04-3.33,14.18c-2.22,4.15-5.27,7.42-9.16,9.82-3.89,2.4-8.35,3.6-13.36,3.6ZM268.92,83.67c2.4,0,4.49-.55,6.27-1.64,1.78-1.09,3.18-2.58,4.2-4.47,1.02-1.89,1.53-4.04,1.53-6.44s-.51-4.65-1.53-6.55c-1.02-1.89-2.42-3.36-4.2-4.42-1.78-1.05-3.84-1.58-6.16-1.58s-4.38.53-6.16,1.58c-1.78,1.06-3.18,2.53-4.2,4.42-1.02,1.89-1.53,4.07-1.53,6.55s.49,4.55,1.47,6.44c.98,1.89,2.38,3.38,4.2,4.47,1.82,1.09,3.85,1.64,6.11,1.64Z"/>
  <g class="cls-10">
    <rect class="cls-11" x="329.85" y="33.76" width="117.04" height="70.92"/>
  </g>
  <g class="cls-6">
    <rect class="cls-8" x="326.85" y="33.76" width="117.04" height="70.92"/>
  </g>
  <g>
    <circle class="cls-9" cx="31.79" cy="9.56" r="9.56"/>
    <rect class="cls-1" x="17.39" y="44.65" width="48.41" height="12.98" transform="translate(.15 -.12) rotate(.17)"/>
    <rect class="cls-5" x="13.67" y="20.98" width="47.81" height="12.75" transform="translate(-6.62 12.97) rotate(-18.02)"/>
    <rect class="cls-7" x="13.93" y="65.84" width="31.88" height="12.75" transform="translate(24.28 -5.73) rotate(18.37)"/>
    <rect class="cls-4" x="4.52" y="80.78" width="22.31" height="12.75" transform="translate(62.04 11.71) rotate(41.77)"/>
  </g>
</svg>